<svg width="24" height="24" viewBox="0 0 24 24" fill="none" xmlns="http://www.w3.org/2000/svg">
<path fill-rule="evenodd" clip-rule="evenodd" d="M11.1038 19.7658C11.4166 20.0781 11.923 20.0781 12.235 19.7658C12.5478 19.4535 12.5478 18.948 12.235 18.6365L7.083 13.4932C6.831 13.2416 7.0094 12.8119 7.3654 12.8119H19.1998C19.6414 12.8119 19.9998 12.4469 19.9998 12.0061V12.0029C19.9998 11.562 19.6414 11.2146 19.1998 11.2146H7.3654C7.0094 11.2146 6.831 10.7842 7.083 10.5326L12.2598 5.3637C12.5726 5.05143 12.5726 4.54588 12.2598 4.23361C11.9478 3.92213 11.4414 3.92213 11.1286 4.23361L4.4686 10.8832C3.8438 11.5069 3.8438 12.518 4.4686 13.1418C4.631 13.3039 11.2326 19.8944 11.1038 19.7658Z" fill="#1C162E"/>
</svg>
