<svg width="24" height="24" viewBox="0 0 24 24" fill="none" xmlns="http://www.w3.org/2000/svg">
<path fill-rule="evenodd" clip-rule="evenodd" d="M12.8 17.3332C12.8 17.7538 12.4416 18.0951 12 18.0951C11.5584 18.0951 11.2 17.7538 11.2 17.3332V6.66657C11.2 6.246 11.5584 5.90467 12 5.90467C12.4416 5.90467 12.8 6.246 12.8 6.66657V17.3332ZM12.8 4.38086H11.2C10.316 4.38086 9.6 5.06276 9.6 5.90467V18.0951C9.6 18.937 10.316 19.619 11.2 19.619H12.8C13.684 19.619 14.4 18.937 14.4 18.0951V5.90467C14.4 5.06276 13.684 4.38086 12.8 4.38086ZM7.2 17.3332C7.2 17.7538 6.8416 18.0951 6.4 18.0951C5.9584 18.0951 5.6 17.7538 5.6 17.3332V9.71419C5.6 9.29362 5.9584 8.95229 6.4 8.95229C6.8416 8.95229 7.2 9.29362 7.2 9.71419V17.3332ZM7.2 7.42848H5.6C4.716 7.42848 4 8.11038 4 8.95229V18.0951C4 18.937 4.716 19.619 5.6 19.619H7.2C8.084 19.619 8.8 18.937 8.8 18.0951V8.95229C8.8 8.11038 8.084 7.42848 7.2 7.42848ZM18.4 17.3332C18.4 17.7538 18.0416 18.0951 17.6 18.0951C17.1584 18.0951 16.8 17.7538 16.8 17.3332V14.2856C16.8 13.8651 17.1584 13.5237 17.6 13.5237C18.0416 13.5237 18.4 13.8651 18.4 14.2856V17.3332ZM18.4 11.9999H16.8C15.916 11.9999 15.2 12.6818 15.2 13.5237V18.0951C15.2 18.937 15.916 19.619 16.8 19.619H18.4C19.284 19.619 20 18.937 20 18.0951V13.5237C20 12.6818 19.284 11.9999 18.4 11.9999Z" fill="#232323"/>
</svg>
