<svg width="24" height="24" viewBox="0 0 24 24" fill="none" xmlns="http://www.w3.org/2000/svg">
<path fill-rule="evenodd" clip-rule="evenodd" d="M15.4 15.2H8.59995V10.4C8.59995 8.2672 10.3 7.2 11.9991 7.2H12.0008C13.7 7.2 15.4 8.2672 15.4 10.4V15.2ZM12.85 17.6C12.85 18.0416 12.4692 18.4 12 18.4C11.5308 18.4 11.15 18.0416 11.15 17.6V16.8H12.85V17.6ZM17.95 15.2H17.1V10.4C17.1 7.5576 15.0872 5.98 12.85 5.6632V4H11.15V5.6632C8.91275 5.98 6.89995 7.5576 6.89995 10.4V15.2H6.04995C5.58075 15.2 5.19995 15.5584 5.19995 16C5.19995 16.4416 5.58075 16.8 6.04995 16.8H9.44995V17.6C9.44995 18.9256 10.5915 20 12 20C13.4084 20 14.55 18.9256 14.55 17.6V16.8H17.95C18.4192 16.8 18.8 16.4416 18.8 16C18.8 15.5584 18.4192 15.2 17.95 15.2Z" fill="#1C162E"/>
</svg>
