<svg width="24" height="24" viewBox="0 0 24 24" fill="none" xmlns="http://www.w3.org/2000/svg">
<path fill-rule="evenodd" clip-rule="evenodd" d="M13.492 10.2279L17.7541 14.5311C18.0054 14.7831 18.4043 14.6047 18.4043 14.2487V12.3991C18.4043 11.9575 18.7921 11.5999 19.2325 11.5999H19.2173C19.6585 11.5999 20 11.9575 20 12.3991V16.3992C20 17.2832 19.3458 18 18.465 18H14.4758C14.0354 18 13.6173 17.8408 13.6173 17.3992V17.4992C13.6173 17.0576 14.0354 16.4 14.4758 16.4H16.4265C16.7823 16.4 16.9602 15.9688 16.7089 15.7168L12.9288 11.9263C12.6176 11.6143 12.1126 11.6135 11.8006 11.9263L11.4719 12.2559C10.8488 12.8807 9.83875 12.8807 9.21484 12.2559L4.19087 7.36462C3.87891 7.05261 4.04327 6.54861 4.04327 6.23661V6.23501C4.8411 5.9222 5.00705 5.9214 5.31901 6.23421L9.70551 10.5583C10.0175 10.8711 10.5592 10.8703 10.8712 10.5575L11.2158 10.2295C11.8381 9.60306 12.8681 9.60226 13.492 10.2279Z" fill="#1C162E"/>
</svg>
