<svg width="24" height="24" viewBox="0 0 24 24" fill="none" xmlns="http://www.w3.org/2000/svg">
<path fill-rule="evenodd" clip-rule="evenodd" d="M10.5864 13.7712L6.2832 9.468C6.0312 9.216 5.6 9.3944 5.6 9.7504V11.6C5.6 12.0416 5.2416 12.4 4.8 12.4C4.3584 12.4 4 12.0416 4 11.6V7.6C4 6.716 4.7168 6 5.6 6H9.6C10.0416 6 10.4 6.3584 10.4 6.8C10.4 7.2416 10.0416 7.6 9.6 7.6H7.644C7.2872 7.6 7.1088 8.0312 7.3608 8.2832L11.1512 12.0728C11.4632 12.3856 11.9696 12.3856 12.2824 12.0728L12.612 11.7432C13.2368 11.1184 14.2496 11.1184 14.8752 11.7432L19.7656 16.6344C20.0784 16.9464 20.0784 17.4536 19.7656 17.7656C19.4536 18.0784 18.9472 18.0784 18.6344 17.7656L14.3096 13.4408C13.9968 13.128 13.4904 13.1288 13.1776 13.4416L12.8504 13.7696C12.2256 14.396 11.212 14.3968 10.5864 13.7712Z" fill="#1C162E"/>
</svg>
