<svg width="24" height="24" viewBox="0 0 24 24" fill="none" xmlns="http://www.w3.org/2000/svg">
<path fill-rule="evenodd" clip-rule="evenodd" d="M8.8 18.0951H6.4C5.9584 18.0951 5.6 17.7538 5.6 17.3332C5.6 16.9127 5.9584 16.5713 6.4 16.5713H8.8C9.2416 16.5713 9.6 16.9127 9.6 17.3332C9.6 17.7538 9.2416 18.0951 8.8 18.0951ZM9.6 15.0475H5.6C4.716 15.0475 4 15.7294 4 16.5713V18.0951C4 18.937 4.716 19.619 5.6 19.619H9.6C10.484 19.619 11.2 18.937 11.2 18.0951V16.5713C11.2 15.7294 10.484 15.0475 9.6 15.0475ZM17.6 7.42848H15.2C14.7584 7.42848 14.4 7.08715 14.4 6.66657C14.4 6.246 14.7584 5.90467 15.2 5.90467H17.6C18.0416 5.90467 18.4 6.246 18.4 6.66657C18.4 7.08715 18.0416 7.42848 17.6 7.42848ZM18.4 4.38086H14.4C13.516 4.38086 12.8 5.06276 12.8 5.90467V7.42848C12.8 8.27038 13.516 8.95229 14.4 8.95229H18.4C19.284 8.95229 20 8.27038 20 7.42848V5.90467C20 5.06276 19.284 4.38086 18.4 4.38086ZM18.4 17.3332C18.4 17.7538 18.0416 18.0951 17.6 18.0951H15.2C14.7584 18.0951 14.4 17.7538 14.4 17.3332V12.7618C14.4 12.3412 14.7584 11.9999 15.2 11.9999H17.6C18.0416 11.9999 18.4 12.3412 18.4 12.7618V17.3332ZM18.4 10.4761H14.4C13.516 10.4761 12.8 11.158 12.8 11.9999V18.0951C12.8 18.937 13.516 19.619 14.4 19.619H18.4C19.284 19.619 20 18.937 20 18.0951V11.9999C20 11.158 19.284 10.4761 18.4 10.4761ZM9.6 11.238C9.6 11.6586 9.2416 11.9999 8.8 11.9999H6.4C5.9584 11.9999 5.6 11.6586 5.6 11.238V6.66657C5.6 6.246 5.9584 5.90467 6.4 5.90467H8.8C9.2416 5.90467 9.6 6.246 9.6 6.66657V11.238ZM9.6 4.38086H5.6C4.716 4.38086 4 5.06276 4 5.90467V11.9999C4 12.8418 4.716 13.5237 5.6 13.5237H9.6C10.484 13.5237 11.2 12.8418 11.2 11.9999V5.90467C11.2 5.06276 10.484 4.38086 9.6 4.38086Z" fill="#232323"/>
</svg>
