<svg width="24" height="24" viewBox="0 0 24 24" fill="none" xmlns="http://www.w3.org/2000/svg">
<path fill-rule="evenodd" clip-rule="evenodd" d="M17.1262 13.421C15.9876 14.8809 14.7972 16.0494 13.4192 17.123C14.5609 17.7823 17.2395 18.9773 18.1074 18.1096C18.6998 17.5173 18.4276 15.6647 17.1262 13.421ZM12.0012 16.2011C13.5868 15.0413 15.0383 13.5902 16.1976 12.0049C15.0431 10.4253 13.5924 8.97255 12.0012 7.80877C10.4044 8.97575 8.95608 10.4301 7.80399 12.0049C8.96327 13.591 10.4156 15.0413 12.0012 16.2011ZM10.5824 17.123C9.2012 16.0462 8.01077 14.8777 6.87544 13.421C5.57404 15.6647 5.30178 17.5173 5.8942 18.1096C6.75408 18.9685 9.40958 17.8015 10.5824 17.123ZM6.87544 10.5889C8.01317 9.129 9.20359 7.96123 10.5824 6.88684C9.44231 6.22753 6.76287 5.03182 5.8942 5.90027C5.30178 6.49253 5.57404 8.34517 6.87544 10.5889ZM13.4192 6.88684C14.8004 7.96283 15.99 9.13139 17.1262 10.5889C20.0148 5.60732 17.8304 4.33738 13.4192 6.88684ZM18.1314 12.0049C22.4787 18.7977 18.7421 22.4518 12.0012 18.1391C5.27624 22.4415 1.50856 18.82 5.87105 12.0049C1.55327 5.25931 5.194 1.51572 12.0012 5.87073C18.7397 1.55963 22.4827 5.20663 18.1314 12.0049ZM12.8523 11.1564C13.3194 11.6242 13.3194 12.3825 12.8523 12.8494C12.3844 13.3172 11.626 13.3172 11.1581 12.8494C10.6902 12.3825 10.6902 11.6242 11.1581 11.1564C11.626 10.6887 12.3844 10.6887 12.8523 11.1564Z" fill="#232323"/>
</svg>
