<svg width="375" height="362" viewBox="0 0 375 362" fill="none" xmlns="http://www.w3.org/2000/svg">
<path d="M20.4531 16L26.2891 26.3437V32H29.6484V26.3437L35.4844 16H31.6953L28.0469 22.8906H27.8906L24.2422 16H20.4531ZM40.4192 32.2344C44.0598 32.2344 46.3255 29.7422 46.3255 26.0469C46.3255 22.3281 44.0598 19.8438 40.4192 19.8438C36.7786 19.8438 34.513 22.3281 34.513 26.0469C34.513 29.7422 36.7786 32.2344 40.4192 32.2344ZM40.4348 29.6562C38.7552 29.6562 37.8958 28.1172 37.8958 26.0234C37.8958 23.9297 38.7552 22.3828 40.4348 22.3828C42.0833 22.3828 42.9427 23.9297 42.9427 26.0234C42.9427 28.1172 42.0833 29.6562 40.4348 29.6562ZM56.4048 26.8906C56.4127 28.5 55.3111 29.3437 54.1158 29.3437C52.858 29.3437 52.0455 28.4609 52.0377 27.0469V20H48.7095V27.6406C48.7173 30.4453 50.358 32.1563 52.772 32.1563C54.5767 32.1563 55.8736 31.2266 56.4127 29.8203H56.5377V32H59.733V20H56.4048V26.8906ZM62.6151 32H65.9432V25.2109C65.9432 23.7344 67.0213 22.7188 68.4901 22.7188C68.951 22.7188 69.5838 22.7969 69.8963 22.8984V19.9453C69.5995 19.875 69.1854 19.8281 68.8495 19.8281C67.5057 19.8281 66.4041 20.6094 65.9666 22.0937H65.8416V20H62.6151V32ZM91.3285 21.6016C90.8832 17.9062 88.0863 15.7812 84.3832 15.7812C80.1566 15.7812 76.9301 18.7656 76.9301 24C76.9301 29.2188 80.102 32.2187 84.3832 32.2187C88.4848 32.2187 90.9613 29.4922 91.3285 26.5469L87.9066 26.5312C87.5863 28.2422 86.2426 29.2266 84.4379 29.2266C82.0082 29.2266 80.3598 27.4219 80.3598 24C80.3598 20.6719 81.9848 18.7734 84.4613 18.7734C86.3129 18.7734 87.6488 19.8438 87.9066 21.6016H91.3285ZM97.3337 32.2266C99.1071 32.2266 100.256 31.4531 100.841 30.3359H100.935V32H104.091V23.9062C104.091 21.0469 101.67 19.8438 98.9977 19.8438C96.1227 19.8438 94.2321 21.2187 93.7712 23.4062L96.8493 23.6562C97.0759 22.8594 97.7868 22.2734 98.9821 22.2734C100.115 22.2734 100.763 22.8437 100.763 23.8281V23.875C100.763 24.6484 99.943 24.75 97.8571 24.9531C95.4821 25.1719 93.3493 25.9687 93.3493 28.6484C93.3493 31.0234 95.0446 32.2266 97.3337 32.2266ZM98.2868 29.9297C97.2634 29.9297 96.529 29.4531 96.529 28.5391C96.529 27.6016 97.3024 27.1406 98.4743 26.9766C99.2009 26.875 100.388 26.7031 100.787 26.4375V27.7109C100.787 28.9687 99.7477 29.9297 98.2868 29.9297ZM106.894 32H110.222V25.2109C110.222 23.7344 111.3 22.7188 112.769 22.7188C113.229 22.7188 113.862 22.7969 114.175 22.8984V19.9453C113.878 19.875 113.464 19.8281 113.128 19.8281C111.784 19.8281 110.683 20.6094 110.245 22.0937H110.12V20H106.894V32ZM119.979 32.1953C121.916 32.1953 122.924 31.0781 123.385 30.0781H123.526V32H126.807V16H123.487V22.0156H123.385C122.94 21.0391 121.979 19.8438 119.971 19.8438C117.338 19.8438 115.112 21.8906 115.112 26.0156C115.112 30.0312 117.244 32.1953 119.979 32.1953ZM121.033 29.5469C119.401 29.5469 118.51 28.0937 118.51 26C118.51 23.9219 119.385 22.4922 121.033 22.4922C122.651 22.4922 123.557 23.8594 123.557 26C123.557 28.1406 122.635 29.5469 121.033 29.5469ZM139.748 23.4219C139.451 21.2109 137.669 19.8438 134.638 19.8438C131.568 19.8438 129.544 21.2656 129.552 23.5781C129.544 25.375 130.677 26.5391 133.021 27.0078L135.099 27.4219C136.146 27.6328 136.623 28.0156 136.638 28.6172C136.623 29.3281 135.849 29.8359 134.685 29.8359C133.498 29.8359 132.709 29.3281 132.505 28.3516L129.232 28.5234C129.544 30.8203 131.498 32.2344 134.677 32.2344C137.787 32.2344 140.013 30.6484 140.021 28.2812C140.013 26.5469 138.88 25.5078 136.552 25.0312L134.38 24.5937C133.263 24.3516 132.849 23.9687 132.857 23.3906C132.849 22.6719 133.662 22.2031 134.693 22.2031C135.849 22.2031 136.537 22.8359 136.701 23.6094L139.748 23.4219Z" fill="#1C162E"/>
<path d="M20.9432 70H29.2386V67.9886H24.3523V67.9091L26.0511 66.2443C28.4432 64.0625 29.0852 62.9716 29.0852 61.6477C29.0852 59.6307 27.4375 58.2045 24.9432 58.2045C22.5 58.2045 20.8239 59.6648 20.8295 61.9489H23.1648C23.1591 60.8352 23.8636 60.1534 24.9261 60.1534C25.9489 60.1534 26.7102 60.7898 26.7102 61.8125C26.7102 62.7386 26.142 63.375 25.0852 64.392L20.9432 68.2273V70ZM35.0672 73.2727H37.4876V68.6023H37.5615C37.8967 69.3295 38.6297 70.142 40.0387 70.142C42.0274 70.142 43.5785 68.5682 43.5785 65.6477C43.5785 62.6477 41.9592 61.1591 40.0444 61.1591C38.5842 61.1591 37.8853 62.0284 37.5615 62.7386H37.4535V61.2727H35.0672V73.2727ZM37.4365 65.6364C37.4365 64.0795 38.0956 63.0852 39.2717 63.0852C40.4706 63.0852 41.1069 64.125 41.1069 65.6364C41.1069 67.1591 40.4592 68.2159 39.2717 68.2159C38.1069 68.2159 37.4365 67.1932 37.4365 65.6364ZM47.7726 64.9545C47.7783 63.8295 48.4658 63.1705 49.4544 63.1705C50.4374 63.1705 51.0169 63.8011 51.0112 64.875V70H53.4317V64.4432C53.4374 62.3977 52.2328 61.1591 50.4147 61.1591C49.0908 61.1591 48.2044 61.7841 47.8067 62.8125H47.7044V58.3636H45.3522V70H47.7726V64.9545ZM56.6784 73.2727C58.4795 73.2727 59.434 72.3523 59.9284 70.9432L63.3204 61.2841L60.7579 61.2727L58.934 67.6818H58.8431L57.0363 61.2727H54.4909L57.6215 70.25L57.4795 70.6193C57.1613 71.4375 56.5534 71.4773 55.7011 71.2159L55.1556 73.0227C55.5022 73.1705 56.0647 73.2727 56.6784 73.2727ZM71.9804 63.7614C71.7645 62.1534 70.469 61.1591 68.2645 61.1591C66.0315 61.1591 64.5599 62.1932 64.5656 63.875C64.5599 65.1818 65.3838 66.0284 67.0884 66.3693L68.5997 66.6705C69.3611 66.8239 69.7077 67.1023 69.719 67.5398C69.7077 68.0568 69.1452 68.4261 68.2986 68.4261C67.4349 68.4261 66.8611 68.0568 66.7134 67.3466L64.3327 67.4716C64.5599 69.142 65.9804 70.1705 68.2929 70.1705C70.5543 70.1705 72.1736 69.017 72.1793 67.2955C72.1736 66.0341 71.3497 65.2784 69.6565 64.9318L68.077 64.6136C67.2645 64.4375 66.9634 64.1591 66.969 63.7386C66.9634 63.2159 67.5543 62.875 68.3043 62.875C69.1452 62.875 69.6452 63.3352 69.7645 63.8977L71.9804 63.7614ZM73.8634 70H76.2839V61.2727H73.8634V70ZM75.0793 60.1477C75.8009 60.1477 76.3918 59.5966 76.3918 58.9205C76.3918 58.25 75.8009 57.6989 75.0793 57.6989C74.3634 57.6989 73.7725 58.25 73.7725 58.9205C73.7725 59.5966 74.3634 60.1477 75.0793 60.1477ZM82.326 70.1705C84.6498 70.1705 86.1101 68.8068 86.2237 66.8011H83.9396C83.7976 67.733 83.1839 68.2557 82.3544 68.2557C81.2237 68.2557 80.4907 67.3068 80.4907 65.6364C80.4907 63.9886 81.2294 63.0455 82.3544 63.0455C83.2407 63.0455 83.8089 63.6307 83.9396 64.5H86.2237C86.1214 62.483 84.593 61.1591 82.3146 61.1591C79.6669 61.1591 78.0305 62.9943 78.0305 65.6705C78.0305 68.3239 79.6385 70.1705 82.326 70.1705ZM90.422 70.1648C91.7118 70.1648 92.547 69.6023 92.9732 68.7898H93.0414V70H95.3368V64.1136C95.3368 62.0341 93.5755 61.1591 91.6323 61.1591C89.5414 61.1591 88.1664 62.1591 87.8311 63.75L90.0698 63.9318C90.2345 63.3523 90.7516 62.9261 91.6209 62.9261C92.4448 62.9261 92.9164 63.3409 92.9164 64.0568V64.0909C92.9164 64.6534 92.3198 64.7273 90.8027 64.875C89.0755 65.0341 87.5243 65.6136 87.5243 67.5625C87.5243 69.2898 88.7573 70.1648 90.422 70.1648ZM91.1152 68.4943C90.3709 68.4943 89.8368 68.1477 89.8368 67.483C89.8368 66.8011 90.3993 66.4659 91.2516 66.3466C91.78 66.2727 92.6436 66.1477 92.9334 65.9545V66.8807C92.9334 67.7955 92.1777 68.4943 91.1152 68.4943ZM99.7951 58.3636H97.3747V70H99.7951V58.3636ZM109.7 70.1705C112.024 70.1705 113.484 68.8068 113.598 66.8011H111.314C111.172 67.733 110.558 68.2557 109.729 68.2557C108.598 68.2557 107.865 67.3068 107.865 65.6364C107.865 63.9886 108.604 63.0455 109.729 63.0455C110.615 63.0455 111.183 63.6307 111.314 64.5H113.598C113.496 62.483 111.967 61.1591 109.689 61.1591C107.041 61.1591 105.405 62.9943 105.405 65.6705C105.405 68.3239 107.013 70.1705 109.7 70.1705ZM117.796 70.1648C119.086 70.1648 119.921 69.6023 120.348 68.7898H120.416V70H122.711V64.1136C122.711 62.0341 120.95 61.1591 119.007 61.1591C116.916 61.1591 115.541 62.1591 115.206 63.75L117.444 63.9318C117.609 63.3523 118.126 62.9261 118.995 62.9261C119.819 62.9261 120.291 63.3409 120.291 64.0568V64.0909C120.291 64.6534 119.694 64.7273 118.177 64.875C116.45 65.0341 114.899 65.6136 114.899 67.5625C114.899 69.2898 116.132 70.1648 117.796 70.1648ZM118.49 68.4943C117.745 68.4943 117.211 68.1477 117.211 67.483C117.211 66.8011 117.774 66.4659 118.626 66.3466C119.154 66.2727 120.018 66.1477 120.308 65.9545V66.8807C120.308 67.7955 119.552 68.4943 118.49 68.4943ZM124.749 70H127.169V65.0625C127.169 63.9886 127.954 63.25 129.022 63.25C129.357 63.25 129.817 63.3068 130.044 63.3807V61.233C129.829 61.1818 129.527 61.1477 129.283 61.1477C128.306 61.1477 127.505 61.7159 127.187 62.7955H127.096V61.2727H124.749V70ZM134.266 70.142C135.675 70.142 136.408 69.3295 136.743 68.6023H136.845V70H139.231V58.3636H136.817V62.7386H136.743C136.419 62.0284 135.72 61.1591 134.26 61.1591C132.345 61.1591 130.726 62.6477 130.726 65.6477C130.726 68.5682 132.277 70.142 134.266 70.142ZM135.033 68.2159C133.845 68.2159 133.197 67.1591 133.197 65.6364C133.197 64.125 133.834 63.0852 135.033 63.0852C136.209 63.0852 136.868 64.0795 136.868 65.6364C136.868 67.1932 136.197 68.2159 135.033 68.2159ZM144.012 68.4091H142.012L141.984 69.0455C141.916 70.5909 141.472 72.1761 141.308 72.8409H142.876C143.149 72.1534 143.796 70.5398 143.95 69.0341L144.012 68.4091ZM154.741 58.3636H152.429L149.548 60.1875V62.3693L152.213 60.6989H152.281V70H154.741V58.3636ZM169.689 61.2727H167.127L165.32 67.517H165.229L163.416 61.2727H160.86L163.911 70H166.638L169.689 61.2727ZM171.088 70H173.508V61.2727H171.088V70ZM172.304 60.1477C173.025 60.1477 173.616 59.5966 173.616 58.9205C173.616 58.25 173.025 57.6989 172.304 57.6989C171.588 57.6989 170.997 58.25 170.997 58.9205C170.997 59.5966 171.588 60.1477 172.304 60.1477ZM175.607 70H178.028V65.0625C178.028 63.9886 178.812 63.25 179.88 63.25C180.215 63.25 180.675 63.3068 180.903 63.3807V61.233C180.687 61.1818 180.386 61.1477 180.141 61.1477C179.164 61.1477 178.363 61.7159 178.045 62.7955H177.954V61.2727H175.607V70ZM187.394 61.2727H185.752V59.1818H183.331V61.2727H182.138V63.0909H183.331V67.6364C183.32 69.3466 184.484 70.1932 186.24 70.1193C186.865 70.0966 187.308 69.9716 187.553 69.892L187.172 68.0909C187.053 68.1136 186.797 68.1705 186.57 68.1705C186.087 68.1705 185.752 67.9886 185.752 67.3182V63.0909H187.394V61.2727ZM194.727 66.2841C194.733 67.4545 193.931 68.0682 193.062 68.0682C192.147 68.0682 191.556 67.4261 191.551 66.3977V61.2727H189.13V66.8295C189.136 68.8693 190.329 70.1136 192.085 70.1136C193.397 70.1136 194.341 69.4375 194.733 68.4148H194.823V70H197.147V61.2727H194.727V66.2841ZM201.732 70.1648C203.022 70.1648 203.857 69.6023 204.283 68.7898H204.351V70H206.647V64.1136C206.647 62.0341 204.885 61.1591 202.942 61.1591C200.851 61.1591 199.476 62.1591 199.141 63.75L201.38 63.9318C201.545 63.3523 202.062 62.9261 202.931 62.9261C203.755 62.9261 204.226 63.3409 204.226 64.0568V64.0909C204.226 64.6534 203.63 64.7273 202.113 64.875C200.385 65.0341 198.834 65.6136 198.834 67.5625C198.834 69.2898 200.067 70.1648 201.732 70.1648ZM202.425 68.4943C201.681 68.4943 201.147 68.1477 201.147 67.483C201.147 66.8011 201.709 66.4659 202.562 66.3466C203.09 66.2727 203.954 66.1477 204.243 65.9545V66.8807C204.243 67.7955 203.488 68.4943 202.425 68.4943ZM211.105 58.3636H208.685V70H211.105V58.3636ZM221.01 70.1705C223.334 70.1705 224.794 68.8068 224.908 66.8011H222.624C222.482 67.733 221.868 68.2557 221.039 68.2557C219.908 68.2557 219.175 67.3068 219.175 65.6364C219.175 63.9886 219.914 63.0455 221.039 63.0455C221.925 63.0455 222.493 63.6307 222.624 64.5H224.908C224.806 62.483 223.277 61.1591 220.999 61.1591C218.351 61.1591 216.715 62.9943 216.715 65.6705C216.715 68.3239 218.323 70.1705 221.01 70.1705ZM229.106 70.1648C230.396 70.1648 231.231 69.6023 231.658 68.7898H231.726V70H234.021V64.1136C234.021 62.0341 232.26 61.1591 230.317 61.1591C228.226 61.1591 226.851 62.1591 226.516 63.75L228.754 63.9318C228.919 63.3523 229.436 62.9261 230.305 62.9261C231.129 62.9261 231.601 63.3409 231.601 64.0568V64.0909C231.601 64.6534 231.004 64.7273 229.487 64.875C227.76 65.0341 226.209 65.6136 226.209 67.5625C226.209 69.2898 227.442 70.1648 229.106 70.1648ZM229.8 68.4943C229.055 68.4943 228.521 68.1477 228.521 67.483C228.521 66.8011 229.084 66.4659 229.936 66.3466C230.464 66.2727 231.328 66.1477 231.618 65.9545V66.8807C231.618 67.7955 230.862 68.4943 229.8 68.4943ZM236.059 70H238.479V65.0625C238.479 63.9886 239.264 63.25 240.332 63.25C240.667 63.25 241.127 63.3068 241.354 63.3807V61.233C241.139 61.1818 240.837 61.1477 240.593 61.1477C239.616 61.1477 238.815 61.7159 238.497 62.7955H238.406V61.2727H236.059V70ZM245.576 70.142C246.985 70.142 247.718 69.3295 248.053 68.6023H248.155V70H250.541V58.3636H248.127V62.7386H248.053C247.729 62.0284 247.03 61.1591 245.57 61.1591C243.655 61.1591 242.036 62.6477 242.036 65.6477C242.036 68.5682 243.587 70.142 245.576 70.142ZM246.343 68.2159C245.155 68.2159 244.507 67.1591 244.507 65.6364C244.507 64.125 245.144 63.0852 246.343 63.0852C247.519 63.0852 248.178 64.0795 248.178 65.6364C248.178 67.1932 247.507 68.2159 246.343 68.2159Z" fill="#1C162E"/>
<path d="M20 118C20 110.268 26.268 104 34 104H115C122.732 104 129 110.268 129 118V118C129 125.732 122.732 132 115 132H34C26.268 132 20 125.732 20 118V118Z" fill="url(#paint0_linear)"/>
<path d="M35.0925 122H36.9377V119.17H38.4888C40.4959 119.17 41.6635 117.973 41.6635 116.23C41.6635 114.496 40.5172 113.273 38.5357 113.273H35.0925V122ZM36.9377 117.692V114.781H38.182C39.2473 114.781 39.763 115.361 39.763 116.23C39.763 117.095 39.2473 117.692 38.1905 117.692H36.9377ZM44.6433 118.216C44.6475 117.372 45.1632 116.878 45.9047 116.878C46.6419 116.878 47.0765 117.351 47.0723 118.156V122H48.8876V117.832C48.8919 116.298 47.9885 115.369 46.6248 115.369C45.6319 115.369 44.9672 115.838 44.6689 116.609H44.5922V113.273H42.8279V122H44.6433V118.216ZM51.2026 124.455C52.5534 124.455 53.2694 123.764 53.6401 122.707L56.1841 115.463L54.2623 115.455L52.8944 120.261H52.8262L51.4711 115.455H49.562L51.91 122.188L51.8034 122.464C51.5648 123.078 51.1088 123.108 50.4696 122.912L50.0605 124.267C50.3205 124.378 50.7424 124.455 51.2026 124.455ZM62.5591 117.321C62.3972 116.115 61.4256 115.369 59.7722 115.369C58.0975 115.369 56.9938 116.145 56.998 117.406C56.9938 118.386 57.6117 119.021 58.8901 119.277L60.0236 119.503C60.5946 119.618 60.8546 119.827 60.8631 120.155C60.8546 120.543 60.4327 120.82 59.7978 120.82C59.15 120.82 58.7196 120.543 58.6088 120.01L56.8233 120.104C56.9938 121.357 58.0591 122.128 59.7935 122.128C61.4895 122.128 62.704 121.263 62.7083 119.972C62.704 119.026 62.0861 118.459 60.8162 118.199L59.6316 117.96C59.0222 117.828 58.7963 117.619 58.8006 117.304C58.7963 116.912 59.2395 116.656 59.802 116.656C60.4327 116.656 60.8077 117.001 60.8972 117.423L62.5591 117.321ZM63.8514 122H65.6667V115.455H63.8514V122ZM64.7633 114.611C65.3045 114.611 65.7477 114.197 65.7477 113.69C65.7477 113.188 65.3045 112.774 64.7633 112.774C64.2264 112.774 63.7832 113.188 63.7832 113.69C63.7832 114.197 64.2264 114.611 64.7633 114.611ZM70.0783 122.128C71.8212 122.128 72.9164 121.105 73.0016 119.601H71.2885C71.182 120.3 70.7218 120.692 70.0996 120.692C69.2516 120.692 68.7019 119.98 68.7019 118.727C68.7019 117.491 69.2559 116.784 70.0996 116.784C70.7644 116.784 71.1905 117.223 71.2885 117.875H73.0016C72.9249 116.362 71.7786 115.369 70.0698 115.369C68.084 115.369 66.8567 116.746 66.8567 118.753C66.8567 120.743 68.0627 122.128 70.0783 122.128ZM76.0304 122.124C76.9977 122.124 77.6241 121.702 77.9437 121.092H77.9949V122H79.7164V117.585C79.7164 116.026 78.3954 115.369 76.938 115.369C75.3699 115.369 74.3386 116.119 74.0872 117.312L75.7662 117.449C75.8897 117.014 76.2775 116.695 76.9295 116.695C77.5474 116.695 77.9011 117.006 77.9011 117.543V117.568C77.9011 117.99 77.4537 118.045 76.3159 118.156C75.0204 118.276 73.8571 118.71 73.8571 120.172C73.8571 121.467 74.7818 122.124 76.0304 122.124ZM76.5502 120.871C75.992 120.871 75.5914 120.611 75.5914 120.112C75.5914 119.601 76.0133 119.349 76.6525 119.26C77.0488 119.205 77.6966 119.111 77.9139 118.966V119.661C77.9139 120.347 77.3471 120.871 76.5502 120.871ZM82.9402 113.273H81.1248V122H82.9402V113.273ZM94.9061 116.328C94.6632 114.312 93.1376 113.153 91.1177 113.153C88.8123 113.153 87.0524 114.781 87.0524 117.636C87.0524 120.483 88.7825 122.119 91.1177 122.119C93.3549 122.119 94.7058 120.632 94.9061 119.026L93.0396 119.017C92.8649 119.95 92.1319 120.487 91.1475 120.487C89.8223 120.487 88.9231 119.503 88.9231 117.636C88.9231 115.821 89.8095 114.786 91.1603 114.786C92.1703 114.786 92.899 115.369 93.0396 116.328H94.9061ZM98.0616 122.124C99.0289 122.124 99.6554 121.702 99.975 121.092H100.026V122H101.748V117.585C101.748 116.026 100.427 115.369 98.9693 115.369C97.4011 115.369 96.3699 116.119 96.1184 117.312L97.7974 117.449C97.921 117.014 98.3088 116.695 98.9608 116.695C99.5787 116.695 99.9324 117.006 99.9324 117.543V117.568C99.9324 117.99 99.4849 118.045 98.3471 118.156C97.0517 118.276 95.8883 118.71 95.8883 120.172C95.8883 121.467 96.813 122.124 98.0616 122.124ZM98.5815 120.871C98.0233 120.871 97.6227 120.611 97.6227 120.112C97.6227 119.601 98.0446 119.349 98.6838 119.26C99.0801 119.205 99.7278 119.111 99.9451 118.966V119.661C99.9451 120.347 99.3784 120.871 98.5815 120.871ZM103.156 122H104.971V118.297C104.971 117.491 105.559 116.938 106.361 116.938C106.612 116.938 106.957 116.98 107.128 117.036V115.425C106.966 115.386 106.74 115.361 106.557 115.361C105.824 115.361 105.223 115.787 104.984 116.597H104.916V115.455H103.156V122ZM110.173 122.107C111.23 122.107 111.78 121.497 112.031 120.952H112.108V122H113.898V113.273H112.087V116.554H112.031C111.789 116.021 111.264 115.369 110.169 115.369C108.733 115.369 107.519 116.486 107.519 118.736C107.519 120.926 108.682 122.107 110.173 122.107ZM110.749 120.662C109.858 120.662 109.372 119.869 109.372 118.727C109.372 117.594 109.85 116.814 110.749 116.814C111.631 116.814 112.125 117.56 112.125 118.727C112.125 119.895 111.622 120.662 110.749 120.662Z" fill="white"/>
<path d="M151.088 113.318H149.795L153.534 123.5H154.806L158.545 113.318H157.252L154.23 121.889H154.11L151.088 113.318ZM160.112 123.5H161.285V115.864H160.112V123.5ZM160.708 114.591C161.166 114.591 161.544 114.233 161.544 113.795C161.544 113.358 161.166 113 160.708 113C160.251 113 159.873 113.358 159.873 113.795C159.873 114.233 160.251 114.591 160.708 114.591ZM163.574 123.5H164.747V118.668C164.747 117.634 165.563 116.878 166.676 116.878C166.99 116.878 167.313 116.938 167.392 116.957V115.764C167.258 115.754 166.95 115.744 166.776 115.744C165.861 115.744 165.066 116.261 164.787 117.017H164.708V115.864H163.574V123.5ZM172.723 115.864H171.092V114.034H169.919V115.864H168.765V116.858H169.919V121.631C169.919 122.963 170.993 123.599 171.987 123.599C172.424 123.599 172.703 123.52 172.862 123.46L172.623 122.406C172.524 122.426 172.365 122.466 172.106 122.466C171.589 122.466 171.092 122.307 171.092 121.312V116.858H172.723V115.864ZM179.44 120.378C179.44 121.81 178.346 122.466 177.471 122.466C176.497 122.466 175.801 121.75 175.801 120.636V115.864H174.628V120.716C174.628 122.665 175.662 123.599 177.093 123.599C178.247 123.599 179.003 122.983 179.36 122.207H179.44V123.5H180.613V115.864H179.44V120.378ZM185.149 123.679C186.482 123.679 187.178 122.963 187.417 122.466H187.476V123.5H188.649V118.469C188.649 116.043 186.8 115.764 185.826 115.764C184.672 115.764 183.36 116.162 182.763 117.554L183.877 117.952C184.135 117.395 184.747 116.798 185.865 116.798C186.944 116.798 187.476 117.37 187.476 118.349V118.389C187.476 118.956 186.899 118.906 185.507 119.085C184.091 119.269 182.544 119.582 182.544 121.332C182.544 122.824 183.698 123.679 185.149 123.679ZM185.328 122.625C184.394 122.625 183.718 122.207 183.718 121.392C183.718 120.497 184.533 120.219 185.448 120.099C185.945 120.04 187.277 119.901 187.476 119.662V120.736C187.476 121.69 186.72 122.625 185.328 122.625ZM192.104 113.318H190.931V123.5H192.104V113.318ZM206.823 116.5C206.445 114.412 204.775 113.179 202.726 113.179C200.121 113.179 198.232 115.188 198.232 118.409C198.232 121.631 200.121 123.639 202.726 123.639C204.775 123.639 206.445 122.406 206.823 120.318H205.59C205.292 121.73 204.079 122.486 202.726 122.486C200.877 122.486 199.425 121.054 199.425 118.409C199.425 115.764 200.877 114.332 202.726 114.332C204.079 114.332 205.292 115.088 205.59 116.5H206.823ZM211.043 123.679C212.376 123.679 213.072 122.963 213.31 122.466H213.37V123.5H214.543V118.469C214.543 116.043 212.694 115.764 211.72 115.764C210.566 115.764 209.254 116.162 208.657 117.554L209.771 117.952C210.029 117.395 210.641 116.798 211.759 116.798C212.838 116.798 213.37 117.37 213.37 118.349V118.389C213.37 118.956 212.793 118.906 211.401 119.085C209.984 119.269 208.438 119.582 208.438 121.332C208.438 122.824 209.592 123.679 211.043 123.679ZM211.222 122.625C210.288 122.625 209.612 122.207 209.612 121.392C209.612 120.497 210.427 120.219 211.342 120.099C211.839 120.04 213.171 119.901 213.37 119.662V120.736C213.37 121.69 212.614 122.625 211.222 122.625ZM216.825 123.5H217.998V118.668C217.998 117.634 218.814 116.878 219.927 116.878C220.24 116.878 220.564 116.938 220.643 116.957V115.764C220.509 115.754 220.201 115.744 220.027 115.744C219.112 115.744 218.316 116.261 218.038 117.017H217.958V115.864H216.825V123.5ZM224.825 123.659C226.297 123.659 226.794 122.744 227.052 122.327H227.192V123.5H228.325V113.318H227.152V117.077H227.052C226.794 116.679 226.336 115.764 224.845 115.764C222.916 115.764 221.584 117.295 221.584 119.702C221.584 122.128 222.916 123.659 224.825 123.659ZM224.984 122.605C223.513 122.605 222.757 121.312 222.757 119.682C222.757 118.071 223.493 116.818 224.984 116.818C226.416 116.818 227.172 117.972 227.172 119.682C227.172 121.412 226.396 122.605 224.984 122.605Z" fill="#C6C4CA"/>
<path d="M552.774 156H325.808C319.839 156 315 160.814 315 166.753V302.247C315 308.186 319.839 313 325.808 313H552.774C558.743 313 563.582 308.186 563.582 302.247V166.753C563.582 160.814 558.743 156 552.774 156Z" fill="url(#paint1_linear)"/>
<mask id="mask0" style="mask-type:alpha" maskUnits="userSpaceOnUse" x="315" y="156" width="249" height="157">
<path d="M552.776 156H325.81C319.841 156 315.002 160.814 315.002 166.753V302.247C315.002 308.186 319.841 313 325.81 313H552.776C558.745 313 563.584 308.186 563.584 302.247V166.753C563.584 160.814 558.745 156 552.776 156Z" fill="#FCC2CE"/>
</mask>
<g mask="url(#mask0)">
<path opacity="0.8" d="M287.452 -62.0428L287.447 -62.0523C287.697 -62.2059 287.938 -62.3774 288.188 -62.5292C318.967 -81.1855 407.521 -92.5251 535.969 32.5293C606.193 197.116 525.71 256.7 494.931 275.355C494.68 275.508 494.417 275.642 494.165 275.793L494.159 275.783L439.523 308.9L384.855 342.036L360.741 356.653L360.729 356.634L210.05 216.432L154.045 18.8479L154.033 18.8285L225.763 -24.6501L232.816 -28.925L287.452 -62.0428Z" fill="#344356" fill-opacity="0.29"/>
<path opacity="0.749" d="M265.047 91.8381L265.042 91.8303C265.247 91.7044 265.446 91.5643 265.652 91.4398C290.96 76.1648 377.258 45.6021 477.101 153.876C527.443 292.023 460.327 354.059 435.019 369.335C434.813 369.457 434.596 369.569 434.389 369.693L434.384 369.684L389.46 396.799L344.508 423.93L324.68 435.897L324.671 435.881L201.088 320.467L155.353 158.067L155.344 158.052L214.323 122.452L220.122 118.952L265.047 91.8381Z" fill="url(#paint2_linear)"/>
</g>
<path d="M337.208 184.896L337.856 182.905H341.005L341.653 184.896H343.63L340.621 176.168H338.244L335.231 184.896H337.208ZM338.325 181.465L339.398 178.163H339.467L340.54 181.465H338.325ZM346.462 181.111C346.466 180.268 346.969 179.773 347.702 179.773C348.43 179.773 348.869 180.251 348.865 181.052V184.896H350.68V180.728C350.68 179.202 349.786 178.265 348.422 178.265C347.45 178.265 346.747 178.742 346.453 179.505H346.376V178.35H344.646V184.896H346.462V181.111ZM352.111 184.896H353.926V182.816L354.417 182.258L356.202 184.896H358.328L355.776 181.184L358.205 178.35H356.121L354.025 180.834H353.926V176.168H352.111V184.896ZM359.096 184.896H360.911V178.35H359.096V184.896ZM360.007 177.506C360.549 177.506 360.992 177.093 360.992 176.586C360.992 176.083 360.549 175.67 360.007 175.67C359.471 175.67 359.027 176.083 359.027 176.586C359.027 177.093 359.471 177.506 360.007 177.506ZM365.847 178.35H364.615V176.782H362.8V178.35H361.905V179.714H362.8V183.123C362.791 184.405 363.665 185.04 364.982 184.985C365.45 184.968 365.783 184.874 365.966 184.815L365.68 183.464C365.591 183.481 365.399 183.523 365.229 183.523C364.866 183.523 364.615 183.387 364.615 182.884V179.714H365.847V178.35Z" fill="white"/>
<path d="M337.901 285.089C339.233 285.089 340.212 284.292 340.208 283.209C340.212 282.383 339.711 281.79 338.844 281.656V281.605C339.526 281.43 339.969 280.895 339.966 280.161C339.969 279.202 339.182 278.383 337.926 278.383C336.728 278.383 335.765 279.106 335.733 280.168H336.686C336.708 279.569 337.273 279.205 337.913 279.205C338.58 279.205 339.016 279.61 339.013 280.212C339.016 280.844 338.509 281.258 337.786 281.258H337.234V282.061H337.786C338.691 282.061 339.214 282.52 339.214 283.177C339.214 283.811 338.662 284.241 337.894 284.241C337.187 284.241 336.635 283.878 336.597 283.298H335.596C335.637 284.363 336.581 285.089 337.901 285.089ZM342.464 284.108H341.546L341.514 284.465C341.441 285.328 341.237 286.198 341.151 286.594H341.827C341.98 286.176 342.318 285.22 342.416 284.455L342.464 284.108ZM343.66 283.725H346.755V285H347.696V283.725H348.56V282.89H347.696V278.472H346.481L343.66 282.928V283.725ZM346.762 282.89H344.693V282.839L346.711 279.645H346.762V282.89ZM351.949 285.089C353.314 285.102 354.219 284.12 354.216 282.868C354.219 281.618 353.31 280.722 352.179 280.722C351.49 280.722 350.894 281.054 350.56 281.605H350.512C350.515 280.123 351.076 279.243 352.032 279.243C352.66 279.243 353.055 279.626 353.189 280.168H354.161C354.012 279.135 353.199 278.383 352.032 278.383C350.515 278.383 349.568 279.686 349.568 281.956C349.565 284.359 350.789 285.08 351.949 285.089ZM351.946 284.261C351.188 284.261 350.633 283.623 350.633 282.89C350.636 282.16 351.216 281.522 351.969 281.522C352.714 281.522 353.263 282.125 353.259 282.88C353.263 283.652 352.692 284.261 351.946 284.261ZM356.34 284.108H355.422L355.39 284.465C355.317 285.328 355.113 286.198 355.027 286.594H355.703C355.856 286.176 356.193 285.22 356.292 284.455L356.34 284.108ZM359.723 285.089C361.036 285.089 361.973 284.162 361.97 282.89C361.973 281.628 361.093 280.71 359.905 280.71C359.42 280.71 358.971 280.895 358.716 281.143H358.677L358.885 279.317H361.654V278.472H358.065L357.699 281.762L358.601 281.895C358.846 281.675 359.286 281.526 359.681 281.526C360.456 281.532 361.017 282.112 361.017 282.909C361.017 283.693 360.472 284.261 359.723 284.261C359.092 284.261 358.591 283.859 358.54 283.298H357.584C357.622 284.337 358.524 285.089 359.723 285.089ZM363.134 285H367.431V284.155H364.492V284.108L365.789 282.75C366.985 281.542 367.326 280.965 367.326 280.235C367.326 279.186 366.471 278.383 365.241 278.383C364.02 278.383 363.128 279.173 363.128 280.365H364.068C364.065 279.664 364.518 279.205 365.222 279.205C365.885 279.205 366.389 279.613 366.389 280.263C366.389 280.84 366.044 281.255 365.343 281.997L363.134 284.286V285ZM371.116 278.472H370.156L368.527 279.537V280.48L370.089 279.46H370.128V285H371.116V278.472Z" fill="white"/>
<path d="M337.015 257.698H339.338V258.655H340.044V257.698H340.692V257.071H340.044V253.755H339.132L337.015 257.1V257.698ZM339.343 257.071H337.79V257.033L339.305 254.636H339.343V257.071ZM341.691 258.655H342.464L344.596 254.411V253.755H341.356V254.389H343.83V254.425L341.691 258.655ZM346.98 258.722C347.965 258.722 348.669 258.026 348.666 257.071C348.669 256.124 348.008 255.435 347.116 255.435C346.752 255.435 346.415 255.574 346.224 255.76H346.195L346.35 254.389H348.43V253.755H345.735L345.46 256.224L346.137 256.325C346.322 256.16 346.652 256.047 346.949 256.047C347.53 256.052 347.951 256.488 347.951 257.086C347.951 257.674 347.542 258.1 346.98 258.1C346.506 258.1 346.13 257.799 346.092 257.378H345.374C345.403 258.158 346.08 258.722 346.98 258.722ZM351.251 258.722C352.275 258.732 352.955 257.995 352.952 257.055C352.955 256.117 352.273 255.444 351.423 255.444C350.907 255.444 350.459 255.693 350.208 256.107H350.172C350.174 254.995 350.596 254.334 351.313 254.334C351.785 254.334 352.081 254.621 352.182 255.028H352.912C352.799 254.253 352.189 253.688 351.313 253.688C350.174 253.688 349.464 254.667 349.464 256.37C349.461 258.174 350.38 258.715 351.251 258.722ZM351.249 258.1C350.679 258.1 350.263 257.622 350.263 257.071C350.265 256.523 350.701 256.045 351.265 256.045C351.825 256.045 352.237 256.497 352.234 257.064C352.237 257.643 351.809 258.1 351.249 258.1Z" fill="white"/>
<path d="M396.185 256.85C396.178 256.416 396.301 255.991 396.538 255.627C396.775 255.263 397.116 254.978 397.517 254.807C397.917 254.637 398.36 254.588 398.788 254.669C399.216 254.749 399.611 254.955 399.921 255.259C400.232 255.563 400.444 255.952 400.532 256.377C400.619 256.802 400.578 257.243 400.413 257.644C400.247 258.045 399.966 258.388 399.604 258.63C399.242 258.871 398.816 259 398.38 259C397.803 259.005 397.247 258.781 396.835 258.377C396.423 257.974 396.189 257.425 396.185 256.85ZM387.955 256.85C387.948 256.416 388.071 255.991 388.308 255.627C388.546 255.263 388.886 254.978 389.287 254.807C389.687 254.637 390.13 254.588 390.558 254.669C390.986 254.749 391.381 254.955 391.691 255.259C392.002 255.563 392.214 255.952 392.302 256.377C392.389 256.802 392.348 257.243 392.183 257.644C392.018 258.045 391.736 258.388 391.374 258.63C391.012 258.871 390.587 259 390.151 259C389.573 259.005 389.017 258.781 388.605 258.377C388.194 257.974 387.96 257.425 387.955 256.85ZM379.722 256.85C379.715 256.416 379.838 255.991 380.076 255.627C380.313 255.263 380.653 254.978 381.054 254.807C381.455 254.637 381.897 254.588 382.325 254.669C382.754 254.749 383.148 254.955 383.459 255.259C383.769 255.563 383.982 255.952 384.069 256.377C384.157 256.802 384.115 257.243 383.95 257.644C383.785 258.045 383.503 258.388 383.141 258.63C382.78 258.871 382.354 259 381.918 259C381.34 259.005 380.784 258.781 380.372 258.377C379.961 257.974 379.727 257.425 379.722 256.85ZM371.492 256.85C371.486 256.416 371.609 255.991 371.846 255.627C372.083 255.263 372.423 254.978 372.824 254.807C373.225 254.637 373.667 254.588 374.096 254.669C374.524 254.749 374.918 254.955 375.229 255.259C375.539 255.563 375.752 255.952 375.839 256.377C375.927 256.802 375.885 257.243 375.72 257.644C375.555 258.045 375.274 258.388 374.912 258.63C374.55 258.871 374.124 259 373.688 259C373.11 259.005 372.554 258.781 372.143 258.377C371.731 257.974 371.497 257.425 371.492 256.85Z" fill="white"/>
<g filter="url(#filter0_d)">
<path d="M287.265 156H32.1484C25.439 156 20 161.458 20 168.192V321.808C20 328.542 25.439 334 32.1484 334H287.265C293.974 334 299.413 328.542 299.413 321.808V168.192C299.413 161.458 293.974 156 287.265 156Z" fill="#24CDD8"/>
<mask id="mask1" style="mask-type:alpha" maskUnits="userSpaceOnUse" x="20" y="156" width="280" height="178">
<path d="M287.265 156H32.1484C25.439 156 20 161.458 20 168.192V321.808C20 328.542 25.439 334 32.1484 334H287.265C293.974 334 299.413 328.542 299.413 321.808V168.192C299.413 161.458 293.974 156 287.265 156Z" fill="#FF3A79"/>
</mask>
<g mask="url(#mask1)">
<path d="M312.257 338.876H216.802C176.446 309.376 205.102 293.929 210.613 273C216.8 249.505 181.906 241.098 150.856 234.724C128.128 230.056 100.157 209.798 77.7697 188.927C56.9661 169.533 61.1118 168.442 11.748 162.22V154.606H312.257V338.876Z" fill="url(#paint3_linear)"/>
<path d="M11.3223 154.606H135.684C130.418 178.537 122.952 203.357 92.8043 213.573C49.7528 228.161 38.9428 253.91 63.5766 275.763C107.196 314.46 56.137 335.183 52.0631 338.876H11.3223V154.606Z" fill="url(#paint4_linear)"/>
<path d="M312.254 243.548C278.383 277.453 258.104 269.317 249.395 228.135C240.686 186.953 191.792 238.222 162.044 210.9C132.296 183.578 84.5818 198.61 45.7031 155.048H312.254V243.548Z" fill="#1C162E"/>
</g>
<path d="M38.5833 186L39.339 183.678H43.013L43.7686 186H46.0755L42.5655 175.818H39.7914L36.2765 186H38.5833ZM39.8858 181.998L41.1387 178.145H41.2182L42.4711 181.998H39.8858ZM49.3791 181.585C49.3841 180.601 49.9707 180.024 50.8258 180.024C51.676 180.024 52.188 180.581 52.1831 181.516V186H54.301V181.138C54.301 179.358 53.2569 178.264 51.666 178.264C50.5325 178.264 49.7122 178.821 49.3691 179.711H49.2797V178.364H47.2612V186H49.3791V181.585ZM55.9702 186H58.0881V183.574L58.6598 182.923L60.7429 186H63.2237L60.2457 181.67L63.0795 178.364H60.6484L58.2024 181.262H58.0881V175.818H55.9702V186ZM64.1186 186H66.2365V178.364H64.1186V186ZM65.1825 177.379C65.8139 177.379 66.331 176.897 66.331 176.305C66.331 175.719 65.8139 175.237 65.1825 175.237C64.5561 175.237 64.0391 175.719 64.0391 176.305C64.0391 176.897 64.5561 177.379 65.1825 177.379ZM71.9949 178.364H70.5581V176.534H68.4402V178.364H67.3961V179.955H68.4402V183.932C68.4302 185.428 69.4494 186.169 70.9856 186.104C71.5325 186.085 71.9203 185.975 72.1341 185.906L71.801 184.33C71.6966 184.349 71.4728 184.399 71.274 184.399C70.8514 184.399 70.5581 184.24 70.5581 183.653V179.955H71.9949V178.364Z" fill="white"/>
<path d="M37.2402 302H48.6465V299.234H41.9277V299.125L44.2637 296.836C47.5527 293.836 48.4355 292.336 48.4355 290.516C48.4355 287.742 46.1699 285.781 42.7402 285.781C39.3809 285.781 37.0762 287.789 37.084 290.93H40.2949C40.2871 289.398 41.2559 288.461 42.7168 288.461C44.123 288.461 45.1699 289.336 45.1699 290.742C45.1699 292.016 44.3887 292.891 42.9355 294.289L37.2402 299.562V302ZM51.9505 302H55.4427L62.0833 288.805V286H50.8567V288.766H58.5833V288.875L51.9505 302ZM65.5201 299.812H62.7701L62.731 300.687C62.6373 302.813 62.0279 304.992 61.8013 305.906H63.9576C64.3326 304.961 65.2232 302.742 65.4341 300.672L65.5201 299.812ZM79.1554 302.219C82.7179 302.219 85.1398 299.898 85.132 296.664C85.1398 293.602 82.9991 291.398 80.1163 291.398C78.7101 291.398 77.4991 291.984 76.9366 292.773H76.8429L77.257 288.766H84.2491V286H74.4679L73.7101 294.438L76.7179 294.977C77.2101 294.312 78.1632 293.898 79.1085 293.898C80.7179 293.906 81.8741 295.07 81.8741 296.75C81.8741 298.414 80.7413 299.562 79.1554 299.562C77.8116 299.562 76.7257 298.719 76.6476 297.477H73.3663C73.4288 300.242 75.8429 302.219 79.1554 302.219ZM93.9848 302.352C98.0082 302.352 100.438 299.289 100.446 294.016C100.454 288.781 97.9926 285.781 93.9848 285.781C89.9691 285.781 87.5316 288.773 87.5238 294.016C87.5082 299.273 89.9535 302.344 93.9848 302.352ZM93.9848 299.547C92.1488 299.547 90.9613 297.703 90.9691 294.016C90.977 290.383 92.1566 288.555 93.9848 288.555C95.8051 288.555 96.9926 290.383 96.9926 294.016C97.0004 297.703 95.8129 299.547 93.9848 299.547ZM109.351 302.352C113.375 302.352 115.804 299.289 115.812 294.016C115.82 288.781 113.359 285.781 109.351 285.781C105.336 285.781 102.898 288.773 102.89 294.016C102.875 299.273 105.32 302.344 109.351 302.352ZM109.351 299.547C107.515 299.547 106.328 297.703 106.336 294.016C106.343 290.383 107.523 288.555 109.351 288.555C111.172 288.555 112.359 290.383 112.359 294.016C112.367 297.703 111.179 299.547 109.351 299.547Z" fill="white"/>
<path d="M78.2694 260.153C76.3176 260.145 75.0009 261.423 75.0094 263.179C75.0137 264.807 76.1429 265.987 77.6898 265.987C78.6486 265.987 79.5009 265.523 79.8887 264.756H79.9483C79.9441 266.486 79.3432 267.538 78.2054 267.538C77.5364 267.538 77.0549 267.172 76.9142 266.537H75.0946C75.2651 268.007 76.4583 269.119 78.2054 269.119C80.3659 269.119 81.7594 267.372 81.7551 264.411C81.7509 261.249 80.0634 260.162 78.2694 260.153ZM78.2821 261.602C79.1301 261.602 79.7566 262.293 79.7651 263.124C79.7694 263.959 79.1088 264.649 78.2651 264.649C77.4128 264.649 76.8034 263.984 76.7992 263.128C76.7907 262.276 77.4256 261.602 78.2821 261.602ZM86.4554 269.192C88.65 269.192 89.9753 267.521 89.9796 264.645C89.9838 261.79 88.6415 260.153 86.4554 260.153C84.2651 260.153 82.9355 261.786 82.9313 264.645C82.9228 267.513 84.2566 269.188 86.4554 269.192ZM86.4554 267.662C85.454 267.662 84.8063 266.656 84.8105 264.645C84.8148 262.663 85.4583 261.666 86.4554 261.666C87.4483 261.666 88.0961 262.663 88.0961 264.645C88.1003 266.656 87.4526 267.662 86.4554 267.662ZM95.0922 260.273H93.3578L91.1973 261.641V263.277L93.1958 262.024H93.247V269H95.0922V260.273ZM100.422 269.119C102.391 269.119 103.806 268.067 103.81 266.652C103.806 265.561 102.966 264.67 101.918 264.496V264.436C102.83 264.249 103.482 263.46 103.486 262.501C103.482 261.151 102.186 260.153 100.422 260.153C98.6536 260.153 97.3581 261.151 97.3624 262.501C97.3581 263.456 98.0016 264.249 98.9306 264.436V264.496C97.8652 264.67 97.0343 265.561 97.0385 266.652C97.0343 268.067 98.4533 269.119 100.422 269.119ZM100.422 267.764C99.5442 267.764 98.9561 267.244 98.9561 266.507C98.9561 265.753 99.574 265.207 100.422 265.207C101.266 265.207 101.888 265.753 101.888 266.507C101.888 267.249 101.296 267.764 100.422 267.764ZM100.422 263.865C99.6848 263.865 99.1607 263.384 99.1607 262.693C99.1607 262.011 99.6763 261.543 100.422 261.543C101.164 261.543 101.683 262.016 101.683 262.693C101.683 263.384 101.155 263.865 100.422 263.865Z" fill="white"/>
<path d="M63.7009 265.516C63.6932 265.024 63.8316 264.542 64.0981 264.129C64.3647 263.717 64.7474 263.393 65.1977 263.2C65.648 263.006 66.1455 262.952 66.6268 263.043C67.1081 263.134 67.5514 263.367 67.9004 263.712C68.2495 264.057 68.4885 264.498 68.5868 264.98C68.6852 265.461 68.6385 265.961 68.4528 266.416C68.2671 266.871 67.9508 267.26 67.544 267.534C67.1373 267.808 66.6587 267.954 66.1689 267.954C65.8473 267.957 65.5283 267.896 65.2303 267.774C64.9322 267.653 64.6608 267.474 64.4317 267.248C64.2025 267.021 64.02 266.752 63.8946 266.455C63.7692 266.158 63.7034 265.838 63.7009 265.516ZM54.4474 265.516C54.4398 265.024 54.578 264.542 54.8445 264.129C55.111 263.717 55.4938 263.393 55.9441 263.2C56.3944 263.006 56.8918 262.952 57.3731 263.043C57.8545 263.134 58.2979 263.367 58.647 263.712C58.996 264.057 59.2348 264.498 59.3332 264.98C59.4316 265.461 59.385 265.961 59.1993 266.416C59.0136 266.871 58.6973 267.26 58.2905 267.534C57.8838 267.808 57.405 267.954 56.9152 267.954C56.2658 267.959 55.641 267.705 55.1782 267.248C54.7154 266.791 54.4525 266.167 54.4474 265.516V265.516ZM45.1973 265.516C45.1897 265.024 45.3279 264.542 45.5944 264.129C45.8609 263.717 46.2437 263.393 46.694 263.2C47.1443 263.006 47.6418 262.952 48.1231 263.043C48.6044 263.134 49.0477 263.367 49.3967 263.712C49.7457 264.057 49.9847 264.498 50.0831 264.98C50.1815 265.461 50.1347 265.961 49.949 266.416C49.7634 266.871 49.447 267.26 49.0403 267.534C48.6336 267.808 48.1549 267.954 47.6651 267.954C47.0157 267.959 46.3909 267.705 45.9281 267.248C45.4653 266.791 45.2024 266.167 45.1973 265.516V265.516ZM35.9437 265.516C35.936 265.024 36.0742 264.542 36.3408 264.129C36.6073 263.717 36.99 263.393 37.4403 263.2C37.8906 263.006 38.3881 262.952 38.8694 263.043C39.3507 263.134 39.7942 263.367 40.1432 263.712C40.4923 264.057 40.7311 264.498 40.8295 264.98C40.9278 265.461 40.8812 265.961 40.6956 266.416C40.5099 266.871 40.1935 267.26 39.7868 267.534C39.3801 267.808 38.9013 267.954 38.4115 267.954C37.762 267.959 37.1373 267.705 36.6745 267.248C36.2117 266.791 35.9488 266.167 35.9437 265.516V265.516Z" fill="white"/>
<path opacity="0.6" d="M269.307 310.059C276.204 310.059 281.795 304.45 281.795 297.53C281.795 290.61 276.204 285 269.307 285C262.41 285 256.818 290.61 256.818 297.53C256.818 304.45 262.41 310.059 269.307 310.059Z" fill="white"/>
<path d="M253.699 310.059C260.597 310.059 266.188 304.45 266.188 297.53C266.188 290.61 260.597 285 253.699 285C246.802 285 241.211 290.61 241.211 297.53C241.211 304.45 246.802 310.059 253.699 310.059Z" fill="white"/>
<path d="M255.03 177.462L251.908 186.772C251.908 186.772 251.115 182.834 251.036 182.34C249.259 178.285 246.637 178.51 246.637 178.51L249.728 190.539V190.536H253.485L258.681 177.462H255.03Z" fill="white"/>
<path d="M258.006 190.539H261.419L263.483 177.462H260.027L258.006 190.539Z" fill="white"/>
<path d="M282.161 177.462H278.57L272.971 190.539H276.361L277.06 188.671H281.335L281.699 190.539H284.805L282.161 177.462ZM278.006 186.173L279.864 181.232L280.837 186.173H278.006Z" fill="white"/>
<path d="M268.325 181.273C268.325 180.553 268.917 180.017 270.614 180.017C271.717 180.017 272.981 180.818 272.981 180.818L273.535 178.073C273.535 178.073 271.921 177.461 270.336 177.461C266.747 177.461 264.896 179.178 264.896 181.351C264.896 185.281 269.626 184.742 269.626 186.761C269.626 187.107 269.352 187.907 267.382 187.907C265.406 187.907 264.102 187.183 264.102 187.183L263.514 189.817C263.514 189.817 264.777 190.538 267.219 190.538C269.667 190.538 273.062 188.707 273.062 186.077C273.062 182.914 268.325 182.686 268.325 181.273Z" fill="white"/>
<path d="M251.494 184.53L250.345 178.885C250.345 178.885 249.826 177.662 248.475 177.662C247.125 177.662 243.197 177.662 243.197 177.662C243.197 177.662 249.927 179.65 251.494 184.53Z" fill="#FFC107"/>
</g>
<defs>
<filter id="filter0_d" x="0" y="144" width="320" height="218" filterUnits="userSpaceOnUse" color-interpolation-filters="sRGB">
<feFlood flood-opacity="0" result="BackgroundImageFix"/>
<feColorMatrix in="SourceAlpha" type="matrix" values="0 0 0 0 0 0 0 0 0 0 0 0 0 0 0 0 0 0 127 0" result="hardAlpha"/>
<feOffset dy="8"/>
<feGaussianBlur stdDeviation="10"/>
<feColorMatrix type="matrix" values="0 0 0 0 0.254167 0 0 0 0 0.254167 0 0 0 0 0.254167 0 0 0 0.08 0"/>
<feBlend mode="normal" in2="BackgroundImageFix" result="effect1_dropShadow"/>
<feBlend mode="normal" in="SourceGraphic" in2="effect1_dropShadow" result="shape"/>
</filter>
<linearGradient id="paint0_linear" x1="20" y1="118" x2="129" y2="118" gradientUnits="userSpaceOnUse">
<stop stop-color="#9D70FF"/>
<stop offset="1" stop-color="#7460FF"/>
</linearGradient>
<linearGradient id="paint1_linear" x1="315" y1="234.5" x2="563.582" y2="234.5" gradientUnits="userSpaceOnUse">
<stop stop-color="#9D70FF"/>
<stop offset="1" stop-color="#7460FF"/>
</linearGradient>
<linearGradient id="paint2_linear" x1="155.344" y1="255.703" x2="495.346" y2="255.703" gradientUnits="userSpaceOnUse">
<stop stop-color="#9D70FF"/>
<stop offset="1" stop-color="#7460FF"/>
</linearGradient>
<linearGradient id="paint3_linear" x1="474.857" y1="261.883" x2="316.29" y2="-17.9573" gradientUnits="userSpaceOnUse">
<stop stop-color="#E83F94"/>
<stop offset="1" stop-color="#F54E5E"/>
</linearGradient>
<linearGradient id="paint4_linear" x1="11.3223" y1="246.741" x2="135.684" y2="246.741" gradientUnits="userSpaceOnUse">
<stop stop-color="#9D70FF"/>
<stop offset="1" stop-color="#7460FF"/>
</linearGradient>
</defs>
</svg>
